<svg xmlns="http://www.w3.org/2000/svg" xmlns:xlink="http://www.w3.org/1999/xlink" width="49.216" height="45.019" viewBox="0 0 49.216 45.019">
  <defs>
    <clipPath id="clip-path">
      <rect id="Rectangle_1359" data-name="Rectangle 1359" width="49.216" height="45.019" fill="#25b0c1"/>
    </clipPath>
  </defs>
  <g id="Group_5336" data-name="Group 5336" transform="translate(0 0)">
    <g id="Group_5280" data-name="Group 5280" transform="translate(0 0)" clip-path="url(#clip-path)">
      <path id="Path_9865" data-name="Path 9865" d="M48.407,10.04a5.739,5.739,0,0,0-2.022-2.175l-7.091-4.33V6.57l5.725,3.494a3.284,3.284,0,0,1,.581.506,4.3,4.3,0,0,1,.506.683L26.05,24.633a2.614,2.614,0,0,1-1.453.38,2.493,2.493,0,0,1-1.429-.38L3.112,11.254a3.452,3.452,0,0,1,.479-.683,3.3,3.3,0,0,1,.584-.506l5.89-3.6V3.451L2.833,7.866A5.782,5.782,0,0,0,.809,10.04,5.821,5.821,0,0,0,0,12.9V36.216a3.762,3.762,0,0,0,1.138,2.758A3.76,3.76,0,0,0,3.9,40.11H45.322a3.882,3.882,0,0,0,3.894-3.894V12.9a5.8,5.8,0,0,0-.809-2.858M46.612,36.216a1.3,1.3,0,0,1-1.291,1.291H3.9a1.282,1.282,0,0,1-.937-.38,1.248,1.248,0,0,1-.378-.911V14.036L21.727,26.781a4.5,4.5,0,0,0,1.351.608,5.881,5.881,0,0,0,3.049,0,4.156,4.156,0,0,0,1.339-.608L46.612,14.036Z" transform="translate(0 4.907)" fill="#25b0c1"/>
      <path id="Path_9866" data-name="Path 9866" d="M5.11,23.425a1.331,1.331,0,0,1-1.332-1.332V5.209A5.215,5.215,0,0,1,8.985,0h21.19a5.213,5.213,0,0,1,5.207,5.209V21.587a1.332,1.332,0,1,1-2.664,0V5.209a2.546,2.546,0,0,0-2.543-2.545H8.985A2.546,2.546,0,0,0,6.442,5.209V22.093A1.331,1.331,0,0,1,5.11,23.425" transform="translate(5.371 0)" fill="#25b0c1"/>
      <path id="Path_9867" data-name="Path 9867" d="M12.46,5.479a1.2,1.2,0,0,0,1.2-1.2,1.2,1.2,0,0,0-1.2-1.2H7.65a1.207,1.207,0,0,0-1.2,1.2,1.2,1.2,0,0,0,1.2,1.2Zm0,4.809A1.2,1.2,0,0,0,13.3,8.247,1.15,1.15,0,0,0,12.46,7.9H7.65a1.194,1.194,0,0,0-.843,2.041,1.149,1.149,0,0,0,.843.351ZM24.469,15.1a1.2,1.2,0,0,0,1.2-1.2,1.181,1.181,0,0,0-.351-.869,1.15,1.15,0,0,0-.845-.351H7.65a1.149,1.149,0,0,0-.843.351,1.184,1.184,0,0,0-.354.869,1.207,1.207,0,0,0,1.2,1.2Zm0,4.807a1.15,1.15,0,0,0,.845-.351,1.176,1.176,0,0,0,.351-.867,1.2,1.2,0,0,0-1.2-1.2H7.65a1.207,1.207,0,0,0-1.2,1.2,1.178,1.178,0,0,0,.354.867,1.149,1.149,0,0,0,.843.351Zm0-9.616a1.2,1.2,0,0,0,1.2-1.2V3.449a1.2,1.2,0,0,0-1.2-1.2h-7.2a1.2,1.2,0,0,0-1.2,1.2V9.092a1.2,1.2,0,0,0,1.2,1.2Zm-6-5.642h4.807V7.9H18.465Z" transform="translate(9.175 3.204)" fill="#25b0c1"/>
    </g>
  </g>
</svg>
