<svg xmlns="http://www.w3.org/2000/svg" xmlns:xlink="http://www.w3.org/1999/xlink" width="117.009" height="22.886" viewBox="0 0 117.009 22.886">
  <defs>
    <clipPath id="clip-path">
      <rect id="Rectangle_1445" data-name="Rectangle 1445" width="117.009" height="22.886" fill="none"/>
    </clipPath>
  </defs>
  <g id="Group_5333" data-name="Group 5333" transform="translate(0 0)">
    <g id="Group_5330" data-name="Group 5330" transform="translate(0 0)" clip-path="url(#clip-path)">
      <path id="Path_10409" data-name="Path 10409" d="M143.3,11.973c0-3.055-1.742-6.553-6.218-6.553-3.2,0-6.178,2.18-6.178,6.553s2.981,6.574,6.178,6.574a5.9,5.9,0,0,0,5.8-3.526l-2.519-.627a3.374,3.374,0,0,1-3.277,1.838,3.6,3.6,0,0,1-3.5-3.535h9.72Zm-9.679-1.256a3.61,3.61,0,0,1,3.56-3.072h.025a3.437,3.437,0,0,1,3.436,3.072Z" transform="translate(-26.287 -1.089)"/>
      <path id="Path_10410" data-name="Path 10410" d="M60.467,3.732A1.722,1.722,0,1,1,58.74,2.015h0A1.708,1.708,0,0,1,60.468,3.7v.028" transform="translate(-11.451 -0.405)"/>
      <path id="Path_10411" data-name="Path 10411" d="M108.653,3.732a1.722,1.722,0,1,1-1.727-1.717h0A1.708,1.708,0,0,1,108.653,3.7v.028" transform="translate(-21.128 -0.405)"/>
      <rect id="Rectangle_1442" data-name="Rectangle 1442" width="2.7" height="10.596" transform="translate(45.944 6.515)"/>
      <rect id="Rectangle_1443" data-name="Rectangle 1443" width="2.7" height="15.617" transform="translate(78.416 1.502)"/>
      <rect id="Rectangle_1444" data-name="Rectangle 1444" width="2.7" height="10.596" transform="translate(84.453 6.515)"/>
      <path id="Path_10412" data-name="Path 10412" d="M63.71,14.826s.463,3.634,6.1,3.634c4.757,0,5.41-2.651,5.41-4.005,0-5.195-8.283-2.4-8.283-5.459,0-.879.8-1.321,2.527-1.321,2.792,0,3,2.048,3,2.048l2.569-.587s-.639-3.659-5.219-3.659c-4.468,0-5.45,2.23-5.45,3.8,0,5.393,8.176,2.2,8.176,5.509,0,1.305-1.561,1.445-2.725,1.445-3.3,0-3.516-1.957-3.516-1.957Z" transform="translate(-12.794 -1.1)"/>
      <path id="Path_10413" data-name="Path 10413" d="M87.888,10.279l4.459-4.625V5.077H89.722l-5.6,5.88V1.881h-2.7V17.5h2.7v-3.3l2.024-2.107,3.84,5.41h2.585v-.785Z" transform="translate(-16.351 -0.378)"/>
      <path id="Path_10414" data-name="Path 10414" d="M47.108,12.175a5.346,5.346,0,0,0-1.99-10.309h-8.11v15.62h2.7v-4.93h4.518l3.609,4.93h2.6v-.76Zm-2-2.18h-5.4V4.429h5.4a2.783,2.783,0,1,1,0,5.566" transform="translate(-7.432 -0.375)"/>
      <path id="Path_10415" data-name="Path 10415" d="M124.954,10.225a4.808,4.808,0,0,0-4.905-4.707,4.955,4.955,0,0,0-4.055,2.064l-.627-1.776H113.3V18.219H116v-6.78a3.584,3.584,0,0,1,3.568-3.6h.016a2.658,2.658,0,0,1,2.659,2.656v7.725h2.7V10.227Z" transform="translate(-22.753 -1.108)"/>
      <path id="Path_10416" data-name="Path 10416" d="M21.455,19.014A7.9,7.9,0,0,1,12.9,20.748" transform="translate(-2.591 -3.819)" fill="none" stroke="#c72a40" stroke-width="0.194"/>
      <path id="Path_10417" data-name="Path 10417" d="M5.414,14.226l1.561-.694A7.917,7.917,0,0,1,8.626,4.721L7.4,3.522a9.582,9.582,0,0,0-2.816,6.793,9.46,9.46,0,0,0,.834,3.906" transform="translate(-0.92 -0.708)" fill="#0e3b43"/>
      <path id="Path_10418" data-name="Path 10418" d="M20.07,16.482l-1.214-1.206A7.911,7.911,0,0,1,6.043,12.9l-1.561.694a9.594,9.594,0,0,1,1.982-10.7L3.949.362A13.186,13.186,0,0,0,22.422,19.184c.059-.058.117-.116.175-.175Z" transform="translate(0 -0.073)" fill="#f70039"/>
      <path id="Path_10419" data-name="Path 10419" d="M6.72,9.613a7.866,7.866,0,0,0,.686,3.213l2.318-1.033a5.362,5.362,0,1,1,9.8-4.36L21.838,6.4,23.4,5.706A9.608,9.608,0,0,0,7.827,2.816L9.033,4.03A7.87,7.87,0,0,0,6.72,9.613" transform="translate(-1.35 -0.001)" fill="#25b0c1"/>
      <path id="Path_10420" data-name="Path 10420" d="M23.083,6.975a7.928,7.928,0,0,0-4.261-4.113l-.949,2.354-.231.578a4.742,4.742,0,1,1-3.551,8.795l-.231.578-.951,2.354A7.9,7.9,0,0,0,23.083,6.971" transform="translate(-2.592 -0.575)"/>
    </g>
  </g>
</svg>
