<svg xmlns="http://www.w3.org/2000/svg" width="26.53" height="26.518" viewBox="0 0 26.53 26.518">
  <g id="Group_4727" data-name="Group 4727" transform="translate(0.003 0.001)">
    <path id="Path_8410" data-name="Path 8410" d="M54.648,159.222a.3.3,0,0,1-.077-.033.284.284,0,0,1-.122-.332l2.344-7.03-10.121,1.246a.283.283,0,0,1-.138-.545l8.365-3.291-4.506-.752a.279.279,0,0,1-.237-.282.284.284,0,0,1,.244-.278l4.625-.656-5.585-6.091a.283.283,0,0,1,.355-.434l6.67,4-1.445-3.977a.283.283,0,0,1,.471-.293l3.129,3.276-.708-7.576a.283.283,0,0,1,.547-.125l2.936,7.9,3.771-5.252a.28.28,0,0,1,.348-.093.283.283,0,0,1,.157.324L64.15,145.24l8.327-3.92a.283.283,0,0,1,.313.464L65.67,148.4l4.614,2.538a.283.283,0,0,1-.134.531l-5.213.04,2.412,10.525a.283.283,0,0,1-.509.225L60.62,153.3l-5.7,5.842a.283.283,0,0,1-.272.08Zm4.446-10.173a.284.284,0,0,1,.2.345L58.66,151.9l2.134-1.624a.284.284,0,0,1,.394.049l1.138,1.433-.285-1.542a.283.283,0,0,1,.053-.222.28.28,0,0,1,.2-.111l2.005-.193L63.29,148.3a.284.284,0,0,1,.044-.38l1.473-1.28-2.766.506a.284.284,0,0,1-.294-.134l-1.152-1.94-.06,1.364a.285.285,0,0,1-.3.27l-1.827-.134.791.685a.283.283,0,0,1-.007.434l-2.015,1.638,1.806-.282a.291.291,0,0,1,.111,0Z" transform="translate(-46.355 -135.866)"/>
  </g>
</svg>
