<svg xmlns="http://www.w3.org/2000/svg" width="29.483" height="30.805" viewBox="0 0 29.483 30.805">
  <g id="Group_5150" data-name="Group 5150" transform="translate(-13.6 -10.165)">
    <path id="Path_9162" data-name="Path 9162" d="M80.048,32.17l-1,.5a1.851,1.851,0,0,0-.712.628l-1.51,2.265a1.847,1.847,0,0,0,0,2.052l1.386,2.08a1.85,1.85,0,0,0,1.091.769l2.25.562a14.941,14.941,0,0,0-1.5-8.857Z" transform="translate(-38.611 -13.509)"/>
    <path id="Path_9163" data-name="Path 9163" d="M33.319,28.737a2.469,2.469,0,0,0-1.744-.722H26.428c-.726-.363-1.656-2.467-2.468-2.467A5.221,5.221,0,0,1,21.624,25l-.854-.427a.922.922,0,0,1-.509-.824h0a.983.983,0,0,1,.63-.874l2.4-.8a1.481,1.481,0,0,1,.39-.063,1.43,1.43,0,0,1,.809.3l.715.622a.617.617,0,0,0,.4.151h.435a.617.617,0,0,0,.551-.893l-1.2-2.4a.73.73,0,0,1-.065-.275.708.708,0,0,1,.187-.442l.765-.744a.616.616,0,0,1,.43-.175H27.4a.711.711,0,0,0,.436-.18l.617-.617a.617.617,0,0,0,0-.872l-.362-.362a.617.617,0,0,1,0-.872l.8-.8.362-.361a1.234,1.234,0,0,0,0-1.745l-2.182-2.182a15.453,15.453,0,0,0-1.88.187v.871a1.234,1.234,0,0,1-1.786,1.1L21.555,11.4A15.5,15.5,0,0,0,13.6,19.249c.765,1.135,1.943,2.881,2.667,3.943a10.633,10.633,0,0,0,1.392,1.6l.062.056a11.127,11.127,0,0,0,2.44,1.677c1.08.543,2.655,1.4,3.763,2.013A2.459,2.459,0,0,1,25.193,30.7v2.468a2.468,2.468,0,0,0,.722,1.745,5.773,5.773,0,0,1,1.745,3.951V40.97a15.406,15.406,0,0,0,3.288-.362L32.289,37c.157-.423.251-.864.368-1.3a1.842,1.842,0,0,1,.476-.826c.256-.257.571-.571.872-.87a4.118,4.118,0,0,0,1.058-2.543h0a2.7,2.7,0,0,0-.688-1.663Z"/>
  </g>
</svg>
