<svg xmlns="http://www.w3.org/2000/svg" width="25.401" height="25.401" viewBox="0 0 25.401 25.401">
  <path id="covid-19" d="M24.607,10.054a.794.794,0,0,0-.794.794v.794H21.629a8.943,8.943,0,0,0-1.868-4.505l1.546-1.546.622.527A.794.794,0,0,0,23.051,5L20.405,2.349a.794.794,0,1,0-1.123,1.122l.527.622L18.264,5.64a8.944,8.944,0,0,0-4.5-1.868V1.588h.794a.794.794,0,0,0,0-1.588h-3.7a.794.794,0,0,0,0,1.588h.794V3.772A8.944,8.944,0,0,0,7.137,5.64L5.591,4.094l.527-.622A.794.794,0,1,0,5,2.349L2.41,5A.794.794,0,1,0,3.533,6.118l.561-.527L5.64,7.137a8.943,8.943,0,0,0-1.868,4.5H1.588v-.794a.794.794,0,0,0-1.588,0v3.7a.794.794,0,0,0,1.588,0v-.794H3.772a8.943,8.943,0,0,0,1.868,4.51L4.094,19.81l-.622-.527A.794.794,0,1,0,2.349,20.4L5,23.051a.794.794,0,0,0,1.123-1.122L5.6,21.307l1.546-1.546a8.944,8.944,0,0,0,4.505,1.868v2.184h-.794a.794.794,0,1,0,0,1.588h3.7a.794.794,0,0,0,0-1.588h-.794V21.628a8.944,8.944,0,0,0,4.505-1.868l1.546,1.546-.527.622a.794.794,0,0,0,1.123,1.122L23.052,20.4a.794.794,0,0,0-1.123-1.122l-.622.527-1.546-1.546a8.943,8.943,0,0,0,1.868-4.5h2.184v.794a.794.794,0,1,0,1.588,0v-3.7a.794.794,0,0,0-.794-.794ZM9.79,10.583a1.852,1.852,0,1,1,1.852-1.852A1.852,1.852,0,0,1,9.79,10.583Zm6.086,6.879A1.058,1.058,0,1,1,16.934,16.4a1.058,1.058,0,0,1-1.058,1.062Z"/>
</svg>
