<svg xmlns="http://www.w3.org/2000/svg" width="28.143" height="23.71" viewBox="0 0 28.143 23.71">
  <g id="Group_5151" data-name="Group 5151" transform="translate(-761.856 -2219.043)">
    <g id="Group_4725" data-name="Group 4725" transform="translate(761.853 2219.042)">
      <path id="Path_8408" data-name="Path 8408" d="M69.6,226.065a.7.7,0,0,0-.548.055l-.2.1,6.021,11.012a.73.73,0,0,1-.288.979l-17.558,9.57.194.4a.732.732,0,0,0,.979.289L75.961,238.8a.732.732,0,0,0,.289-.98L70.035,226.4a.7.7,0,0,0-.435-.339Z" transform="translate(-48.189 -224.843)"/>
      <g id="Group_4724" data-name="Group 4724">
        <path id="Path_8409" data-name="Path 8409" d="M64.009,224.775l6.215,11.417a.73.73,0,0,1-.288.979L52.175,246.84a.732.732,0,0,1-.979-.289l-6.215-11.417a.732.732,0,0,1,.289-.98l17.761-9.669a.731.731,0,0,1,.979.289Zm3.221,8.936-2.762-5.074a2.891,2.891,0,0,1-3.919-1.156L49.131,233.7a2.889,2.889,0,0,1-1.156,3.919l2.762,5.074a2.891,2.891,0,0,1,3.919,1.156l11.418-6.215a2.889,2.889,0,0,1,1.156-3.919Z" transform="translate(-44.893 -224.399)"/>
      </g>
    </g>
    <rect id="Rectangle_762" data-name="Rectangle 762" width="5.015" height="4.312" rx="2.156" transform="matrix(0.883, -0.468, 0.468, 0.883, 771.495, 2229.3)"/>
  </g>
</svg>
