<svg xmlns="http://www.w3.org/2000/svg" width="25.008" height="20.717" viewBox="0 0 25.008 20.717">
  <path id="Path_8407" data-name="Path 8407" d="M73.06,316.134v15.539a.877.877,0,0,1-.863.864h-2.59a3.453,3.453,0,1,1-6.906,0h-5.18a3.453,3.453,0,1,1-6.906,0H48.889a.864.864,0,0,1,0-1.727V325.2a2.093,2.093,0,0,1,.176-.782,2.05,2.05,0,0,1,.431-.688l2.671-2.67a2.039,2.039,0,0,1,.687-.431,2.1,2.1,0,0,1,.782-.176h2.158v-4.317a.875.875,0,0,1,.864-.863H72.2a.875.875,0,0,1,.863.863Zm-22.445,9.5h5.179v-3.453h-2.13a.568.568,0,0,0-.3.121l-2.63,2.63a.966.966,0,0,0-.121.3Zm4.674,8.127a1.725,1.725,0,1,0-1.221.506,1.663,1.663,0,0,0,1.221-.511Zm14.318-10.284v-2.59a.415.415,0,0,0-.431-.431H66.154v-3.021a.416.416,0,0,0-.431-.431h-2.59a.416.416,0,0,0-.431.431v3.021H59.68a.416.416,0,0,0-.432.431v2.59a.416.416,0,0,0,.432.431H62.7v3.021a.416.416,0,0,0,.431.431h2.59a.416.416,0,0,0,.431-.431V323.9h3.021a.416.416,0,0,0,.431-.431Zm-2.233,10.284a1.724,1.724,0,1,0-1.22.506,1.66,1.66,0,0,0,1.22-.511Z" transform="translate(-48.055 -315.273)"/>
</svg>
