<svg xmlns="http://www.w3.org/2000/svg" width="23.278" height="21.725" viewBox="0 0 23.278 21.725">
  <path id="Path_8404" data-name="Path 8404" d="M72.945,99.354a.388.388,0,0,1-.388.388H71.394v.581a.582.582,0,0,1-.582.582H51.8a.583.583,0,0,1-.582-.582v-.581H50.056a.388.388,0,0,1-.388-.388v-.776a.419.419,0,0,1,.24-.359l11.251-4.268a.446.446,0,0,1,.148-.029.451.451,0,0,1,.149.029l11.251,4.268a.42.42,0,0,1,.239.359Zm0,15.129v.776a.388.388,0,0,1-.388.388h-22.5a.388.388,0,0,1-.388-.388v-.776a1.164,1.164,0,0,1,1.164-1.163h20.95a1.163,1.163,0,0,1,1.162,1.163Zm-16.521-12.8v9.312h3.558V101.68h2.765v9.312H66.19V101.68h2.876v9.312h1.747a.581.581,0,0,1,.582.581v.97H51.219v-.97a.582.582,0,0,1,.582-.581h1.746V101.68Z" transform="translate(-49.668 -93.922)"/>
</svg>
