<svg xmlns="http://www.w3.org/2000/svg" width="18.058" height="21.224" viewBox="0 0 18.058 21.224">
  <g id="Group_5149" data-name="Group 5149" transform="translate(-700.715 -2220.635)">
    <path id="Path_8411" data-name="Path 8411" d="M66.709,184.485h0c0,.938-.014,1.877,0,2.815a1.2,1.2,0,0,0,1.16,1.19h.788a1.169,1.169,0,0,0,1.226-1.249q.015-2.745,0-5.492a1.154,1.154,0,0,0-1.169-1.208c-.278,0-.555,0-.833,0a1.211,1.211,0,0,0-1.177,1.264C66.7,182.7,66.709,183.593,66.709,184.485Z" transform="translate(644.935 2040.772)"/>
    <path id="Path_8412" data-name="Path 8412" d="M75.625,185.372h0c0-.846.007-1.692,0-2.538a1.194,1.194,0,0,0-1.205-1.275c-.292,0-.584-.006-.876,0a1.1,1.1,0,0,0-1.11,1.117q-.04,2.676-.011,5.353a1.148,1.148,0,0,0,1.146,1.143h.788a1.235,1.235,0,0,0,1.274-1.357Q75.626,186.592,75.625,185.372Z" transform="translate(643.107 2040.446)"/>
    <path id="Path_8413" data-name="Path 8413" d="M58.057,183.632c.259-.007.4-.111.4-.382-.006-.461,0-.922,0-1.383a1.2,1.2,0,0,0-1.273-1.34H56.4a1.208,1.208,0,0,0-1.115,1.137c-.02.537,0,1.076-.012,1.613-.007.285.112.369.369.371C56.061,183.654,57.561,183.645,58.057,183.632Z" transform="translate(648.607 2040.777)"/>
    <path id="Path_8414" data-name="Path 8414" d="M61,180.891c0,.7-.008,1.545,0,2.113a.381.381,0,0,0,.4.332,2.428,2.428,0,0,1,1.476.318.969.969,0,0,1,.359.718,3.417,3.417,0,0,1-1.474,2.885.939.939,0,0,0-.224.269,1.528,1.528,0,0,0,.521.14,8.009,8.009,0,0,0,.876.012,1.264,1.264,0,0,0,1.257-1.3c.012-1.846,0-3.694,0-5.54,0-.627-.355-1.294-1.613-1.294S61.007,180.22,61,180.891Z" transform="translate(646.767 2041.091)"/>
    <g id="Group_4729" data-name="Group 4729" transform="translate(700.699 2225.006)">
      <path id="Path_8415" data-name="Path 8415" d="M68.605,190.992a.189.189,0,0,0-.025-.072c-.073-.113-.246-.067-.37-.015a3,3,0,0,1-2.935-.4.467.467,0,0,0-.693-.046,2.9,2.9,0,0,1-3.382-.428.566.566,0,0,0-.255-.177.591.591,0,0,0-.383.12c-.932.512-2.073.182-3.122.013-.46-.074-1.09,0-1.163.462-.062.4.367.677.733.845l1.3.6a3.351,3.351,0,0,1,1.292.861,3.857,3.857,0,0,1,.54,1.575c.067.275-.014.419-.088.435-.2.043-.336-.632-.381-.79a1.8,1.8,0,0,0-1.373-1.506l-1.527-.64a2.624,2.624,0,0,1-.953-.623.908.908,0,0,1-.169-1.041,1.59,1.59,0,0,1,1.129-.634,3.606,3.606,0,0,0,2.554-2.663.73.73,0,0,0-.109-.686.8.8,0,0,0-.541-.156q-2.78-.1-5.562.035A.962.962,0,0,0,52,186.92l-1.133,3.888a3.778,3.778,0,0,0-.2,2.033,3.625,3.625,0,0,0,.8,1.306c1.778,2.127,3.89,4.2,6.593,4.818.12.027.27.164.168.234l-1.618-.147a.433.433,0,0,0-.279.038.423.423,0,0,0-.139.327,11.7,11.7,0,0,0-.022,2.2,3.5,3.5,0,0,0,.058.513.475.475,0,0,0,.157.232,1.287,1.287,0,0,0,.7.368,3.443,3.443,0,0,0,.674.052h7.249a1.252,1.252,0,0,0,1.567-1.513l-.018-2.158a.323.323,0,0,0-.452-.372l-2.28.3a18.147,18.147,0,0,1,2.238-1.417,4.951,4.951,0,0,0,2.267-1.769,4.343,4.343,0,0,0,.318-2.087l-.037-2.7a.5.5,0,0,0-.006-.079Z" transform="translate(-50.593 -185.98)"/>
    </g>
  </g>
</svg>
